<?xml version="1.0" standalone="no"?><!DOCTYPE svg PUBLIC "-//W3C//DTD SVG 1.1//EN" "http://www.w3.org/Graphics/SVG/1.1/DTD/svg11.dtd"><svg height="1200" node-id="1" sillyvg="true" template-height="1200" template-width="1362" version="1.1" viewBox="0 0 1362 1200" width="1362" xmlns="http://www.w3.org/2000/svg" xmlns:xlink="http://www.w3.org/1999/xlink"><defs node-id="38"></defs><g node-id="40"><path d="M 1320.42 510.87 C 1320.42 510.87 1386.99 752.13 1345.93 887.03" fill="none" group-id="1" id="Shape" node-id="9" stroke="#6e6e96" stroke-linecap="round" stroke-width="5" target-height="376.15906" target-width="66.56909" target-x="1320.4178" target-y="510.87488"></path><path d="M 90.18 19.98 C 90.18 19.98 -26.89 123.76 95.36 249.63 C 167.88 324.28 289.31 296.92 285.74 233.95 C 284.88 218.75 305.02 153.41 294.53 159.67 C 252.72 184.62 97.37 144.97 125.33 37.67 C 125.34 37.67 143.30 -33.64 90.18 19.98 Z" fill="#f0f0ff" fill-rule="nonzero" group-id="1" id="Shape" node-id="10" stroke="none" target-height="357.91858" target-width="331.91266" target-x="-26.892624" target-y="-33.63643"></path><g node-id="41"><path d="M 59.54 78.18 C 56.47 115.13 68.39 159.71 114.79 207.50 C 175.57 270.07 270.67 260.95 297.77 219.28 C 297.21 223.04 296.91 226.17 297.03 228.31 C 300.60 291.27 179.17 318.64 106.65 243.98 C 43.66 179.13 44.20 120.15 59.54 78.18 Z" fill="#6e6e96" fill-opacity="0.15" fill-rule="nonzero" group-id="1,2" id="Shape" node-id="11" stroke="none" target-height="240.45792" target-width="256.9389" target-x="43.65883" target-y="78.18197"></path></g><g node-id="42"><path d="M 1239.69 462.06 C 1239.69 538.71 1194.98 612.23 1115.40 666.43 C 1035.81 720.64 927.87 751.09 815.33 751.09 C 702.78 751.09 594.84 720.64 515.25 666.43 C 435.67 612.23 390.96 538.71 390.96 462.06 C 390.96 385.40 435.67 311.89 515.25 257.69 C 594.84 203.48 702.78 173.03 815.33 173.03 C 927.87 173.03 1035.81 203.48 1115.40 257.69 C 1194.98 311.89 1239.69 385.40 1239.69 462.06 Z" fill="#ffffff" fill-opacity="0.36" fill-rule="nonzero" group-id="1,3" id="Oval" node-id="12" stroke="none" target-height="578.0539" target-width="848.7289" target-x="390.96155" target-y="173.0326"></path></g><path d="M 1340.10 592.75 C 1340.10 351.58 1144.61 174.43 823.84 174.43 C 503.07 174.43 243.04 235.42 243.04 476.60 C 243.04 616.71 330.83 762.42 467.26 859.97 C 467.07 859.85 466.89 859.73 466.70 859.60 C 466.70 859.60 544.21 949.84 544.21 1130.54 L 544.21 1199.36 L 673.28 1199.36 C 673.28 1199.36 651.94 1040.58 742.89 990.38 C 752.75 1008.59 759.33 1030.69 759.33 1057.39 C 759.33 1164.95 759.33 1164.95 759.33 1164.95 L 862.58 1164.95 L 862.58 1104.71 C 862.58 1104.71 856.29 1024.09 879.31 974.12 C 899.65 953.78 919.44 955.49 938.61 974.66 C 955.95 996.00 969.41 1019.18 969.41 1057.38 C 969.41 1164.93 969.41 1164.93 969.41 1164.93 L 1072.66 1164.93 L 1072.66 1104.69 C 1072.66 1104.69 1068.21 1039.32 1080.61 984.65 C 1135.37 1052.29 1116.41 1185.10 1116.41 1185.10 L 1215.36 1185.10 L 1215.36 1129.18 C 1215.36 948.04 1249.45 851.06 1268.98 810.34 C 1315.25 751.63 1340.10 678.52 1340.10 592.75 Z" fill="#f0f0ff" fill-rule="nonzero" group-id="1" id="Shape" node-id="13" stroke="none" target-height="1024.9229" target-width="1097.0519" target-x="243.04337" target-y="174.43437"></path><g node-id="43"><path d="M 1088.45 394.32 C 1088.45 494.71 968.95 576.10 821.55 576.10 C 674.15 576.10 554.65 494.71 554.65 394.32 C 554.65 293.92 674.15 212.53 821.55 212.53 C 968.95 212.53 1088.45 293.92 1088.45 394.32 Z" fill="#ffffff" fill-opacity="0.36" fill-rule="nonzero" group-id="1,4" id="Oval" node-id="14" stroke="none" target-height="363.5667" target-width="533.7958" target-x="554.651" target-y="212.53413"></path></g><path d="M 839.36 168.26 C 840.15 170.95 840.93 173.91 841.72 177.19 C 867.85 283.76 728.02 364.72 728.02 364.72 C 697.57 375.26 651.03 356.86 641.85 349.41 C 507.70 240.52 645.89 240.20 645.89 240.20 C 740.22 264.78 782.39 199.74 806.62 165.81 C 729.29 161.44 645.68 167.17 574.13 196.08 C 378.46 275.19 641.85 567.13 744.89 567.13 C 847.95 567.13 949.51 475.65 964.43 351.41 C 983.03 196.51 1112.24 235.06 1112.24 235.06 C 1112.24 235.06 959.00 179.38 839.36 168.26 Z" fill="#6e6e96" fill-rule="nonzero" group-id="1" id="Shape" node-id="15" stroke="none" target-height="405.68408" target-width="733.77856" target-x="378.46298" target-y="161.44313"></path><path d="M 751.13 499.97 C 751.13 596.71 712.47 689.49 643.66 757.90 C 574.84 826.30 481.51 864.73 384.19 864.73 C 286.87 864.73 193.53 826.30 124.72 757.90 C 55.90 689.49 17.24 596.71 17.24 499.97 C 17.24 403.23 55.90 310.45 124.72 242.05 C 193.53 173.64 286.87 135.21 384.19 135.21 C 481.51 135.21 574.84 173.64 643.66 242.05 C 712.47 310.45 751.13 403.23 751.13 499.97 Z" fill="#f0f0ff" fill-rule="nonzero" group-id="1" id="Oval" node-id="16" stroke="none" target-height="729.52625" target-width="733.88995" target-x="17.242374" target-y="135.20847"></path><g node-id="44"><path d="M 647.70 445.61 C 647.70 604.20 518.36 732.76 358.82 732.76 C 199.28 732.76 69.95 604.20 69.95 445.61 C 69.95 287.03 199.28 158.47 358.82 158.47 C 518.36 158.47 647.70 287.03 647.70 445.61 Z" fill="#fafafa" fill-opacity="0.57" fill-rule="nonzero" group-id="1,5" id="Oval" node-id="17" stroke="none" target-height="574.2885" target-width="577.7489" target-x="69.94626" target-y="158.46947"></path></g><path d="M 299.77 346.02 C 302.51 373.96 289.31 387.57 270.67 390.51 C 252.03 393.45 235.04 384.59 232.29 356.66 C 229.56 328.73 242.45 303.69 261.08 300.77 C 279.72 297.84 297.04 318.10 299.77 346.02 Z" fill="#6e6e96" fill-rule="nonzero" group-id="1" id="Shape" node-id="18" stroke="none" target-height="95.6131" target-width="72.95029" target-x="229.55948" target-y="297.83633"></path><path d="M 480.49 356.44 C 479.33 385.74 463.91 388.68 443.58 386.04 C 423.25 383.38 405.71 376.15 406.87 346.85 C 408.05 317.55 425.47 295.94 445.79 298.59 C 466.11 301.22 481.65 327.13 480.49 356.44 Z" fill="#6e6e96" fill-rule="nonzero" group-id="1" id="Shape" node-id="19" stroke="none" target-height="92.745026" target-width="75.9415" target-x="405.7123" target-y="295.93604"></path><g node-id="45"><path d="M 326.85 912.61 C 127.06 885.38 -18.19 740.67 2.42 589.38 C 23.04 438.09 201.71 337.51 401.50 364.73 C 601.30 391.95 746.55 536.67 725.94 687.96 C 705.32 839.25 526.65 939.83 326.85 912.61 Z" fill="#ffabab" fill-rule="nonzero" group-id="1,6" id="Oval" node-id="20" stroke="none" target-height="602.32043" target-width="764.7401" target-x="-18.190552" target-y="337.5077"></path></g><path d="M 526.99 399.74 C 585.21 430.90 599.58 517.85 599.58 554.50 C 599.58 688.54 408.08 799.09 222.60 799.09 C 143.53 799.09 70.90 764.36 13.52 692.16 C 52.18 801.47 173.39 891.74 326.89 912.66 C 526.73 939.90 705.43 839.29 726.05 687.96 C 741.99 570.72 658.36 457.50 526.99 399.74 Z" fill="#f0a1a1" fill-rule="nonzero" group-id="1" id="Shape" node-id="21" stroke="none" target-height="540.15356" target-width="728.4765" target-x="13.518009" target-y="399.74268"></path><path d="M 1332.15 510.87 C 1342.02 568.20 1301.27 545.72 1282.27 517.16 C 1273.27 503.63 1279.06 478.83 1279.06 478.83 C 1279.06 478.83 1297.64 411.54 1207.37 379.26 C 1154.46 360.33 1143.05 305.98 1150.27 282.14 C 1156.95 260.06 1182.22 277.42 1182.22 277.42 C 1182.22 277.42 1306.78 363.67 1332.15 510.87 Z" fill="#6e6e96" fill-rule="nonzero" group-id="1" id="Shape" node-id="22" stroke="none" target-height="308.14136" target-width="198.974" target-x="1143.045" target-y="260.05914"></path><g node-id="46"><path d="M 238.43 550.87 C 212.66 553.53 190.12 539.72 188.08 520.01 C 186.04 500.31 205.28 482.17 231.04 479.50 C 256.81 476.84 279.35 490.65 281.39 510.36 C 283.43 530.07 264.19 548.20 238.43 550.87 Z" fill="#6e6e96" fill-rule="nonzero" group-id="1,7" id="Oval" node-id="23" stroke="none" target-height="76.69293" target-width="97.386536" target-x="186.04102" target-y="476.83936"></path></g><g node-id="47"><path d="M 416.26 562.04 C 390.54 558.91 371.59 540.74 373.94 521.45 C 376.29 502.16 399.04 489.07 424.76 492.20 C 450.48 495.33 469.42 513.51 467.08 532.79 C 464.73 552.08 441.97 565.18 416.26 562.04 Z" fill="#6e6e96" fill-rule="nonzero" group-id="1,8" id="Oval" node-id="24" stroke="none" target-height="76.10858" target-width="97.83136" target-x="371.59344" target-y="489.0669"></path></g><path d="M 932.92 709.20 C 916.61 663.63 970.87 630.04 1043.33 604.07 C 1115.80 578.09 1179.06 569.61 1195.37 615.17 C 1211.70 660.74 1176.25 746.82 1103.79 772.79 C 1031.30 798.77 949.25 754.76 932.92 709.20 Z" fill="#6e6e96" fill-rule="nonzero" group-id="1" id="Shape" node-id="25" stroke="none" target-height="229.15582" target-width="295.0915" target-x="916.61066" target-y="569.614"></path><path d="M 808.79 78.90 C 808.79 78.90 930.10 177.72 813.19 308.56 C 743.85 386.17 646.03 358.18 622.32 300.85 C 611.62 283.14 599.71 221.17 610.46 226.99 C 653.27 250.16 806.82 204.08 774.42 98.05 C 774.39 98.06 753.48 27.55 808.79 78.90 Z" fill="#f0f0ff" fill-rule="nonzero" group-id="1" id="Shape" node-id="26" stroke="none" target-height="358.61655" target-width="330.39362" target-x="599.7068" target-y="27.554304"></path><g node-id="48"><path d="M 847.47 124.02 C 852.08 160.82 847.89 205.86 803.54 255.52 C 745.41 320.60 650.00 315.44 621.19 274.94 C 621.90 278.67 622.32 281.78 622.30 283.92 C 621.37 346.98 743.84 369.27 813.17 291.63 C 873.41 224.22 864.55 165.31 847.47 124.02 Z" fill="#6e6e96" fill-opacity="0.15" fill-rule="nonzero" group-id="1,9" id="Shape" node-id="27" stroke="none" target-height="245.24388" target-width="252.22333" target-x="621.19073" target-y="124.0237"></path></g><path d="M 544.19 1137.28 L 672.62 1137.28 L 672.62 1193.50 L 544.19 1193.50 Z" fill="#b8b8d4" fill-rule="nonzero" group-id="1" id="Rectangle-path" node-id="28" stroke="none" target-height="56.217163" target-width="128.42255" target-x="544.1935" target-y="1137.2808"></path><path d="M 759.31 1106.81 L 862.56 1106.81 L 862.56 1164.93 L 759.31 1164.93 Z" fill="#b8b8d4" fill-rule="nonzero" group-id="1" id="Rectangle-path" node-id="29" stroke="none" target-height="58.12915" target-width="103.24939" target-x="759.3083" target-y="1106.8057"></path><path d="M 969.38 1107.96 L 1072.63 1107.96 L 1072.63 1164.95 L 969.38 1164.95 Z" fill="#b8b8d4" fill-rule="nonzero" group-id="1" id="Rectangle-path" node-id="30" stroke="none" target-height="56.997192" target-width="103.24951" target-x="969.3849" target-y="1107.9552"></path><path d="M 1118.88 1125.20 L 1215.34 1125.20 L 1215.34 1185.11 L 1118.88 1185.11 Z" fill="#b8b8d4" fill-rule="nonzero" group-id="1" id="Rectangle-path" node-id="31" stroke="none" target-height="59.90625" target-width="96.46936" target-x="1118.875" target-y="1125.2045"></path><g node-id="49"><path d="M 619.64 1193.49 C 619.64 1193.49 599.11 935.91 707.61 935.91 C 707.61 935.91 759.31 930.04 759.31 1070.81 C 759.31 1070.81 766.26 1006.29 725.21 1006.29 C 684.15 1006.29 672.63 1149.03 672.63 1193.49 L 619.64 1193.49 Z" fill="#6e6e96" fill-opacity="0.2" fill-rule="nonzero" group-id="1,10" id="Shape" node-id="32" stroke="none" target-height="263.44922" target-width="167.15576" target-x="599.1086" target-y="930.04285"></path></g><g node-id="50"><path d="M 810.93 1164.93 C 810.93 1164.93 788.86 960.25 902.24 960.25 C 902.24 960.25 862.54 965.81 862.54 1164.93 L 810.93 1164.93 Z" fill="#6e6e96" fill-opacity="0.2" fill-rule="nonzero" group-id="1,11" id="Shape" node-id="33" stroke="none" target-height="204.6867" target-width="113.37848" target-x="788.8626" target-y="960.2481"></path></g><g node-id="51"><path d="M 1021.40 1164.93 L 1021.40 1006.28 C 1021.40 1006.28 1021.70 925.75 1080.62 984.65 L 1072.67 1164.92 L 1021.40 1164.93 Z" fill="#6e6e96" fill-opacity="0.2" fill-rule="nonzero" group-id="1,12" id="Shape" node-id="34" stroke="none" target-height="239.18524" target-width="59.220093" target-x="1021.3967" target-y="925.7496"></path></g><g node-id="52"><path d="M 1168.02 1185.11 C 1168.02 1185.11 1141.63 921.25 1188.55 847.94 C 1235.47 774.62 1349.73 629.55 1314.59 448.42 C 1314.59 448.42 1379.26 598.56 1324.11 704.44 C 1268.96 810.35 1215.34 827.41 1215.34 1125.20 L 1215.34 1185.11 L 1168.02 1185.11 Z" fill="#6e6e96" fill-opacity="0.2" fill-rule="nonzero" group-id="1,13" id="Shape" node-id="35" stroke="none" target-height="736.68756" target-width="237.63098" target-x="1141.6316" target-y="448.42316"></path></g><path d="M 401.50 364.66 C 201.68 337.42 22.98 438.02 2.36 589.33 C -18.27 740.65 127.01 885.39 326.82 912.61 C 526.63 939.85 705.34 839.24 725.97 687.92 C 746.59 536.61 601.32 391.88 401.50 364.66 Z M 683.74 643.06 C 665.47 765.90 507.12 847.57 330.07 825.48 C 153.01 803.36 24.29 685.86 42.56 563.03 C 60.83 440.19 219.17 358.52 396.22 380.62 C 573.28 402.72 702.01 520.22 683.74 643.06 Z" fill="#6e6e96" fill-opacity="0.15" fill-rule="nonzero" group-id="1,14" id="Shape" node-id="36" stroke="none" target-height="602.4293" target-width="764.85187" target-x="-18.265041" target-y="337.42"></path></g></svg>